<svg xmlns="http://www.w3.org/2000/svg" width="22.899" height="23.754" viewBox="0 0 22.899 23.754"><g transform="translate(0 0)"><path d="M9.835,2.577q.073,0,.146,0h1.832V1a1.112,1.112,0,0,1,1.231-1h1.689a.986.986,0,0,1,1.088,1V2.576h6.869V1a.986.986,0,0,1,1.088-1h1.689a1.112,1.112,0,0,1,1.231,1V2.576h1.832A2.118,2.118,0,0,1,30.7,4.634q0,.073,0,.146V21.321a2.329,2.329,0,0,1-2.175,2.433H9.981a2.329,2.329,0,0,1-2.175-2.433V4.779A2.118,2.118,0,0,1,9.835,2.577Zm4.9-1.432H12.957V4.293h1.774Zm10.732,0H23.832V4.293h1.631ZM8.95,21.321a1.189,1.189,0,0,0,1.03,1.288H28.526a1.189,1.189,0,0,0,1.03-1.288V9.158H8.95V21.321Zm0-16.542V8.013H29.556V4.779a.973.973,0,0,0-1.03-1.059H26.694v.63a1.178,1.178,0,0,1-1.231,1.088H23.775a1.059,1.059,0,0,1-1.088-1.03q0-.029,0-.058v-.63H15.819v.63a1.059,1.059,0,0,1-1.03,1.088H13.043A1.178,1.178,0,0,1,11.812,4.35v-.63H9.981A.973.973,0,0,0,8.95,4.779Z" transform="translate(-7.804)"/></g></svg>