<svg xmlns="http://www.w3.org/2000/svg" width="22.989" height="22.989" viewBox="0 0 22.989 22.989"><defs><style>.a{stroke:#fff;stroke-width:0.5px;}</style></defs><g transform="translate(0.25 0.25)"><path class="a" d="M4.326,11.25a.856.856,0,0,1,.851-.862h5.205v-5.2h0a.865.865,0,1,1,1.73,0v6.056a.865.865,0,0,1-.865.865H5.176a.856.856,0,0,1-.85-.862m-2.6-.005a9.516,9.516,0,1,0,9.516-9.518,9.517,9.517,0,0,0-9.516,9.518M0,11.245A11.245,11.245,0,1,1,11.244,22.489,11.244,11.244,0,0,1,0,11.245"/></g></svg>