<svg xmlns="http://www.w3.org/2000/svg" width="273.789" height="235.992" viewBox="0 0 273.789 235.992"><defs><style>.a{fill:#fff;stroke:rgba(0,0,0,0);stroke-miterlimit:10;}</style></defs><path class="a" d="M264.961.041C178.222-.01,90.241.009,3.485.091a3.632,3.632,0,0,0-3.02.982,1.92,1.92,0,0,0-.4,1.78,1.777,1.777,0,0,0,.4,1.434C1.342,5.314,3.231,5.315,3.6,5.305c5.461.063,11.034.023,16.424-.017l.423,0a25.246,25.246,0,0,0-.876,5.06c-.048,26.1-.029,52.6-.011,78.228q.022,31.275.01,62.545c.011,1.076,0,2.146-.018,3.217a64.036,64.036,0,0,0,.162,7l.017.174.121.125a12.022,12.022,0,0,0,3.078,2.308q4.78,2.742,9.584,5.515c5.861,3.378,11.922,6.871,17.911,10.264,1.277.536,1.373,1.776,1.378,3.61,0,.486,0,.945.046,1.377-.093,4.936-.069,10.013-.049,14.925.019,4.153.038,8.447-.012,12.671-.234,4.133-.5,8.842,1.427,13.066l.261-.119-.26.122A16.694,16.694,0,0,0,68.1,234.949q26.749.035,53.491.016,30.41-.011,60.824.026h.208l.147-.147q19.734-19.81,39.5-39.576l.141-.139.006-.2c.065-2.252.065-4.537.066-6.748,0-2.531,0-5.147.1-7.717q5.85-3.344,11.675-6.743c6.436-3.733,13.091-7.6,19.7-11.268l.22-.122.033-.249a65.07,65.07,0,0,0,.525-11q-.024-45.622,0-91.273c.089-7.5-.019-15.123-.125-22.5-.112-7.742-.226-15.745-.111-23.615a23.569,23.569,0,0,0-.831-8.42q1.872.011,3.746.032c4.14.041,8.422.085,12.634-.07A2.427,2.427,0,0,0,272.6,3.455,2.616,2.616,0,0,0,271.459.349l-.185-.061A36.422,36.422,0,0,0,266.693,0C266.115,0,265.537.013,264.961.041ZM33.594,9C32.231,7.816,30.831,6.6,29.484,5.354c71.244-.067,143.617-.053,215.154.033q-5.195,4.64-10.4,9.266C211.159,35,187.735,55.624,164.613,75.946c-1.019.89-2.073,1.816-3.4,1.583l-12.151,0c-12.408.009-25.237.015-37.854-.035C99.446,67,87.4,56.425,75.753,46.2,63.995,35.883,51.837,25.213,39.971,14.62l-.16-.143-.182.015C37.7,12.556,35.615,10.748,33.594,9ZM24.819,91.144c.015-24.1.032-49.019-.06-73.535l.181-.107-.014-.3a79.72,79.72,0,0,1,.046-8.488c1.573,1.273,3.1,2.637,4.583,3.963q1.052.94,2.11,1.869c8.707,7.509,17.473,15.241,25.949,22.719q6.768,5.972,13.55,11.93c4.722,4.213,9.57,8.448,14.258,12.547,6.973,6.095,14.179,12.393,21.127,18.747-12.289,11.017-24.7,22.3-36.7,33.206-14.7,13.367-29.9,27.18-45,40.626C24.791,133.249,24.805,111.851,24.819,91.144ZM167.594,80.428c24.773-21.971,49.976-44.169,74.918-65.992.744-.635,1.489-1.279,2.232-1.922,1.442-1.245,2.923-2.524,4.418-3.764.055,2.077.069,4.174.084,6.211l.021,2.615c-.066,21.3-.051,42.968-.036,63.92.017,23.872.034,48.543-.068,72.832Q208.37,117.386,167.594,80.428Zm-7.335,2.307a4.309,4.309,0,0,1,3.43,1.258q10.577,9.55,21.072,19.107c10.608,9.643,21.577,19.611,32.446,29.331v3.112c.033,17.323.033,34.889,0,52.21-.007,1.192-.008,2.383,0,3.581q-12.153-.024-24.291-.023a13.928,13.928,0,0,0-9.923,3.451c-2.153,1.9-3.128,4.585-4.07,7.178l-.184.5v.092c.069,6.939.053,13.995.039,20.819l-.013,6.352c-34.792-.024-70.065-.024-104.846,0-.788-.017-1.606,0-2.432.011-3.19.054-6.49.111-9.132-1.7l-.284.413h0l.262-.427a11.159,11.159,0,0,1-5.292-9.751q.011-17.526,0-35.026-.009-23.926.011-47.856c.007-.988.023-1.972.04-2.969q8.737-7.911,17.456-15.84c12.237-11.116,24.889-22.611,37.423-33.817q12.174-.014,24.342,0l10.943,0Q153.756,82.741,160.259,82.735ZM41.769,168.642c-4.912-2.837-9.985-5.767-15.019-8.6,3.121-2.9,6.376-5.732,9.529-8.48,5.076-4.423,10.316-8.989,15.118-13.908a113.422,113.422,0,0,1,.43,13.36c-.012,1.721-.023,3.441-.007,5.16-.016,2.162-.006,4.332,0,6.5.018,3.836.037,7.794-.1,11.7Q46.735,171.522,41.769,168.642Zm180.713-9.459c0-5.108.01-10.39-.047-15.584a39.154,39.154,0,0,1,.493-5.641,44.167,44.167,0,0,0,4.262,4.019c.893.771,1.817,1.568,2.677,2.391,3.186,3.116,6.609,6.083,9.918,8.951,2.511,2.176,5.1,4.423,7.578,6.724-3.2,1.866-6.419,3.7-9.637,5.535-5.007,2.853-10.175,5.8-15.2,8.828C222.471,169.326,222.476,164.173,222.481,159.183ZM184,217.022c.007-2.917.016-5.933-.026-8.9V207.2c-.005-2.443-.01-4.972,1.251-7.051a8.392,8.392,0,0,1,7.572-3.674c3.142.023,6.25.023,9.359.023,3.747,0,7.609,0,11.429.04q-4.352,4.351-8.695,8.708c-6.82,6.837-13.865,13.9-20.861,20.808C183.979,223.037,183.987,219.986,184,217.022ZM80.222,121.494a3,3,0,0,0,0,6h105a3,3,0,0,0,0-6Zm70,26a3,3,0,0,0,0,6h51a3,3,0,0,0,0-6Zm-70,0a3,3,0,0,0,0,6h55a3,3,0,1,0,0-6Zm87,26a3,3,0,0,0,0,6h34a3,3,0,0,0,0-6Zm-87,0a3,3,0,0,0,0,6h64a3,3,0,1,0,0-6Zm0,26a3,3,0,1,0,0,6h50a3,3,0,0,0,0-6Z" transform="translate(273.285 235.492) rotate(180)"/></svg>