<svg xmlns="http://www.w3.org/2000/svg" width="164.73" height="69.995" viewBox="0 0 164.73 69.995"><path d="M320.411,439.211a9.494,9.494,0,0,0-2.954-6.917,7.9,7.9,0,0,1-2.3-7.12,10.138,10.138,0,0,0-.074-3.732,9.1,9.1,0,0,0-1.6-3.585,9.572,9.572,0,0,0-6.444-3.851A7.889,7.889,0,0,1,301,409.612a9.572,9.572,0,0,0-12.786-4.448c-.125.061-.25.124-.372.191a8.62,8.62,0,0,0,1.537,15.831,18.774,18.774,0,0,1,0,36.035,8.556,8.556,0,0,0-6.08,8.23h0a8.616,8.616,0,0,0,4.56,7.614,9.571,9.571,0,0,0,12.956-3.915c.061-.117.122-.234.18-.353a7.891,7.891,0,0,1,6.054-4.393,9.576,9.576,0,0,0,8.172-10.8c-.018-.13-.038-.258-.061-.387a7.9,7.9,0,0,1,2.322-7.107A9.5,9.5,0,0,0,320.411,439.211Zm-24.507,0a10.218,10.218,0,1,0-10.218,10.22,10.218,10.218,0,0,0,10.218-10.22Z" transform="translate(-155.68 -404.206)"/><g transform="translate(0 8.69)"><path d="M225.133,429.58a7.934,7.934,0,0,0,5.923-2.49,8.588,8.588,0,0,0-.027-11.913,8.233,8.233,0,0,0-11.815,0,8.575,8.575,0,0,0-.016,11.914A7.987,7.987,0,0,0,225.133,429.58Zm-2.861-11.46a3.76,3.76,0,0,1,2.848-1.277,3.8,3.8,0,0,1,2.866,1.282,4.286,4.286,0,0,1,1.239,3.081,4.154,4.154,0,0,1-1.208,3.023,4.04,4.04,0,0,1-5.8.018,4.19,4.19,0,0,1-1.176-3.028A4.324,4.324,0,0,1,222.272,418.12Z" transform="translate(-191.152 -407.774)"/><path d="M236.691,431.429a7.214,7.214,0,0,0,4.233-1.439v.976h4.166V409.622h-4.166v6.1a7.338,7.338,0,0,0-4.1-1.2,8.044,8.044,0,0,0-5.942,2.482,8.22,8.22,0,0,0-2.431,5.955,8.322,8.322,0,0,0,2.4,5.961A7.862,7.862,0,0,0,236.691,431.429Zm-2.806-11.487a4.169,4.169,0,0,1,5.955-.047,4.373,4.373,0,0,1,1.187,3.16,4.261,4.261,0,0,1-4.169,4.31,3.89,3.89,0,0,1-2.941-1.295,4.417,4.417,0,0,1-.032-6.128Z" transform="translate(-184.109 -409.622)"/><path d="M243.73,428.454a6.289,6.289,0,0,0,7.189-.385v.979h4.22V412.97h-4.332v9.082a2.864,2.864,0,0,1-5.728,0V412.97h-4.3V421.2a11.5,11.5,0,0,0,.722,4.637A5.734,5.734,0,0,0,243.73,428.454Z" transform="translate(-176.654 -407.598)"/><path d="M200.815,450.454h4.3v-9.5H212.5v-4.268h-7.393v-3.3H212.5v-4.272H200.815Z" transform="translate(-200.815 -397.84)"/><path d="M221.936,433.078a7.333,7.333,0,0,0-4.1-1.2,8.053,8.053,0,0,0-5.943,2.482,8.214,8.214,0,0,0-2.431,5.945,8.325,8.325,0,0,0,2.412,5.961,7.864,7.864,0,0,0,5.847,2.513,7.6,7.6,0,0,0,4.219-1.351v.891H226.1v-16.08h-4.167Zm-1.133,10.4a3.965,3.965,0,0,1-2.933,1.234,3.908,3.908,0,0,1-2.944-1.282,4.417,4.417,0,0,1-.018-6.136,3.868,3.868,0,0,1,2.949-1.276,3.948,3.948,0,0,1,2.964,1.236,4.256,4.256,0,0,1,1.218,3.124A4.153,4.153,0,0,1,220.8,443.481Z" transform="translate(-195.589 -396.166)"/><path d="M233.963,442.635a4.873,4.873,0,0,1-3.986,2.08,4.157,4.157,0,0,1-3.179-1.306,4.352,4.352,0,0,1-1.248-3.145,4.03,4.03,0,0,1,1.245-3.026A4.338,4.338,0,0,1,229.977,436a4.646,4.646,0,0,1,3.941,2.031l.56.754,3.23-2.11-.512-.873a7.579,7.579,0,0,0-3.018-2.9,8.644,8.644,0,0,0-4.127-1.019,8.218,8.218,0,0,0-6.174,2.5,8.4,8.4,0,0,0-2.405,6.013,8.2,8.2,0,0,0,2.4,5.956,8.027,8.027,0,0,0,5.932,2.43,9.345,9.345,0,0,0,4.169-.948,8.021,8.021,0,0,0,3.195-2.818l.566-.86-3.184-2.264Z" transform="translate(-188.327 -396.166)"/><path d="M248.247,431.878a7.972,7.972,0,0,0-5.921,2.5,8.575,8.575,0,0,0-.016,11.914,8.308,8.308,0,0,0,11.858,0,8.586,8.586,0,0,0-.027-11.911A7.936,7.936,0,0,0,248.247,431.878Zm2.882,11.55a4.04,4.04,0,0,1-5.8.021,4.2,4.2,0,0,1-1.175-3.031,4.314,4.314,0,0,1,1.229-3.1,3.759,3.759,0,0,1,2.85-1.276,3.805,3.805,0,0,1,2.864,1.277,4.291,4.291,0,0,1,1.239,3.081A4.146,4.146,0,0,1,251.129,443.428Z" transform="translate(-177.178 -396.166)"/><path d="M214.884,419.372a2.027,2.027,0,0,1,2.023-2.027h2.447v-4.172h-2.447a6.206,6.206,0,0,0-6.2,6.2v9.91h4.175Z" transform="translate(-194.834 -407.475)"/><path d="M251.967,438.571v9.91h4.174v-9.91a2.027,2.027,0,0,1,2.025-2.025h2.447v-4.174h-2.447A6.206,6.206,0,0,0,251.967,438.571Z" transform="translate(-169.889 -395.867)"/><path d="M267.017,440.8l-3.907-8.7h-4.485L264.791,446l-.846,1.884a2.884,2.884,0,0,1-2.591,1.627h-2.046V453.6h2.046a6.6,6.6,0,0,0,6.282-3.915l6.763-15.42.064-.241.839-1.922h-4.514Z" transform="translate(-165.863 -396.03)"/><path d="M271.352,427.252a2.026,2.026,0,0,1-2.025-2.025v-2.72l.022,0v-3.679h2.773v-3.933H269.35v-5.265h-4.217v5.265h-2.415v3.933h2.415v4.235l.019,0v2.171a6.207,6.207,0,0,0,6.2,6.2h1.476v-4.174Z" transform="translate(-163.388 -409.619)"/><path d="M239.514,444.364v-2.72l.023,0v-3.679h2.774v-3.935h-2.774v-5.1H235.32v5.1H232.9v3.935h2.415V442.2l.021,0v2.169a6.206,6.206,0,0,0,6.2,6.2h1.476v-4.172h-1.476A2.028,2.028,0,0,1,239.514,444.364Z" transform="translate(-181.414 -397.949)"/><path d="M259.881,429.58a9.349,9.349,0,0,0,4.169-.948,8.017,8.017,0,0,0,3.193-2.818l.566-.86-3.184-2.264-.586.746a4.873,4.873,0,0,1-3.986,2.08,4.16,4.16,0,0,1-3.179-1.306,4.354,4.354,0,0,1-1.248-3.145,4.021,4.021,0,0,1,1.247-3.026,4.334,4.334,0,0,1,3.18-1.242A4.648,4.648,0,0,1,264,418.828l.558.753,3.23-2.108-.512-.873a7.573,7.573,0,0,0-3.018-2.9,8.659,8.659,0,0,0-4.125-1.017,8.221,8.221,0,0,0-6.176,2.5,8.4,8.4,0,0,0-2.405,6.011,8.213,8.213,0,0,0,2.4,5.958A8.03,8.03,0,0,0,259.881,429.58Z" transform="translate(-170.142 -407.774)"/><path d="M208.628,409.75h-7.8v21.566h4.236v-9.339h3.562a6.114,6.114,0,1,0,0-12.227Zm-.1,8.119h-3.466v-3.963h3.466a1.982,1.982,0,0,1,0,3.963Z" transform="translate(-200.807 -409.545)"/></g></svg>