<svg xmlns="http://www.w3.org/2000/svg" width="328.419" height="282.387" viewBox="0 0 328.419 282.387"><defs><style>.a,.c,.e{fill:#fff;}.a,.b,.c,.d,.f{stroke:#000;}.a{stroke-miterlimit:10;stroke-width:2.2px;}.b{stroke-width:2.5px;}.c,.d{stroke-width:2.4px;}.d,.f,.h{fill:none;}.f{stroke-linecap:round;stroke-linejoin:round;stroke-width:2px;}.g{stroke:none;}</style></defs><g transform="translate(1.43)"><g transform="translate(46.925)"><g transform="translate(0 7)"><g transform="translate(114.991)"><g transform="translate(0 84.625) rotate(-90)"><path class="a" d="M81.615,0h0c4.348,0,3.759,8.289-.309,8.279H0V.732L81.617.007"/></g></g><g transform="translate(0 121.609)"><g class="b" transform="translate(243.925 3.177) rotate(90)"><rect class="g" width="145.17" height="239.979" rx="24"/><rect class="h" x="1.25" y="1.25" width="142.67" height="237.479" rx="22.75"/></g><g class="c" transform="translate(0 0)"><rect class="g" width="240.516" height="143.999" rx="25"/><rect class="h" x="1.2" y="1.2" width="238.116" height="141.599" rx="23.8"/></g></g><g transform="translate(19.479 142.236)"><g class="c" transform="translate(0 0)"><rect class="g" width="200.716" height="107.032" rx="12"/><rect class="h" x="1.2" y="1.2" width="198.316" height="104.632" rx="10.8"/></g></g><path class="d" d="M3054.687,5969.652l45.588-36.609,45.588,36.609" transform="translate(-2980.817 -5846.318)"/><g transform="translate(107.01 73.826)"><g class="c" transform="translate(0 0)"><rect class="g" width="23.853" height="24.012" rx="11.927"/><rect class="h" x="1.2" y="1.2" width="21.453" height="21.612" rx="10.727"/></g></g><g transform="translate(43.183 164.986)"><path d="M316.963,436.526a8.766,8.766,0,0,0-2.727-6.387,7.3,7.3,0,0,1-2.123-6.574,9.36,9.36,0,0,0-.068-3.446,8.4,8.4,0,0,0-1.482-3.31,8.838,8.838,0,0,0-5.95-3.556,7.284,7.284,0,0,1-5.575-4.056,8.837,8.837,0,0,0-11.8-4.107c-.116.056-.231.114-.344.176a7.959,7.959,0,0,0,1.419,14.617,17.334,17.334,0,0,1,0,33.271,7.9,7.9,0,0,0-5.614,7.6h0a7.955,7.955,0,0,0,4.211,7.03,8.837,8.837,0,0,0,11.962-3.615c.056-.108.113-.216.166-.326a7.286,7.286,0,0,1,5.59-4.056,8.842,8.842,0,0,0,7.546-9.971c-.016-.12-.036-.239-.056-.357a7.3,7.3,0,0,1,2.144-6.562A8.771,8.771,0,0,0,316.963,436.526Zm-22.628,0a9.434,9.434,0,1,0-9.434,9.436,9.434,9.434,0,0,0,9.434-9.436Z" transform="translate(-164.868 -404.206)"/><g transform="translate(0 8.024)"><path d="M224.494,428.284a7.325,7.325,0,0,0,5.468-2.3,7.929,7.929,0,0,0-.025-11,7.6,7.6,0,0,0-10.909,0,7.918,7.918,0,0,0-.015,11A7.374,7.374,0,0,0,224.494,428.284ZM221.853,417.7a3.472,3.472,0,0,1,2.63-1.179,3.513,3.513,0,0,1,2.646,1.184,3.957,3.957,0,0,1,1.144,2.845,3.835,3.835,0,0,1-1.116,2.791,3.73,3.73,0,0,1-5.354.016,3.869,3.869,0,0,1-1.086-2.8A3.993,3.993,0,0,1,221.853,417.7Z" transform="translate(-193.119 -408.15)"/><path d="M236.059,429.756a6.661,6.661,0,0,0,3.908-1.329v.9h3.846V409.622h-3.846v5.634a6.775,6.775,0,0,0-3.79-1.105,7.427,7.427,0,0,0-5.486,2.292,7.59,7.59,0,0,0-2.245,5.5,7.683,7.683,0,0,0,2.212,5.5A7.259,7.259,0,0,0,236.059,429.756Zm-2.591-10.606a3.85,3.85,0,0,1,5.5-.043,4.038,4.038,0,0,1,1.1,2.917A3.935,3.935,0,0,1,236.213,426a3.592,3.592,0,0,1-2.716-1.2,4.078,4.078,0,0,1-.03-5.658Z" transform="translate(-187.51 -409.622)"/><path d="M243.5,427.267a5.807,5.807,0,0,0,6.637-.356v.9h3.9V412.97h-4v8.386a2.645,2.645,0,0,1-5.289,0V412.97h-3.97v7.6a10.619,10.619,0,0,0,.667,4.282A5.293,5.293,0,0,0,243.5,427.267Z" transform="translate(-181.572 -408.01)"/><path d="M200.816,448.817h3.966v-8.773h6.826V436.1h-6.826v-3.05h6.826v-3.944H200.816Z" transform="translate(-200.816 -400.238)"/><path d="M220.979,432.986a6.771,6.771,0,0,0-3.788-1.108,7.435,7.435,0,0,0-5.488,2.292,7.584,7.584,0,0,0-2.245,5.489,7.686,7.686,0,0,0,2.227,5.5,7.261,7.261,0,0,0,5.4,2.32,7.012,7.012,0,0,0,3.895-1.248v.822h3.848V432.211h-3.848Zm-1.046,9.6a3.66,3.66,0,0,1-2.708,1.139,3.608,3.608,0,0,1-2.719-1.184,4.078,4.078,0,0,1-.016-5.665,3.571,3.571,0,0,1,2.723-1.178,3.645,3.645,0,0,1,2.736,1.141,3.93,3.93,0,0,1,1.124,2.885A3.835,3.835,0,0,1,219.934,442.591Z" transform="translate(-196.653 -398.905)"/><path d="M233,441.81a4.5,4.5,0,0,1-3.68,1.92,3.839,3.839,0,0,1-2.935-1.206,4.018,4.018,0,0,1-1.153-2.9,3.722,3.722,0,0,1,1.15-2.794,4,4,0,0,1,2.938-1.147,4.289,4.289,0,0,1,3.639,1.876l.517.7,2.982-1.948-.473-.806a7,7,0,0,0-2.787-2.679,7.98,7.98,0,0,0-3.811-.941,7.588,7.588,0,0,0-5.7,2.311,7.754,7.754,0,0,0-2.221,5.551,7.571,7.571,0,0,0,2.215,5.5,7.411,7.411,0,0,0,5.477,2.243,8.628,8.628,0,0,0,3.849-.876,7.406,7.406,0,0,0,2.95-2.6l.523-.794-2.939-2.09Z" transform="translate(-190.869 -398.905)"/><path d="M247.608,431.878a7.361,7.361,0,0,0-5.467,2.308,7.918,7.918,0,0,0-.015,11,7.671,7.671,0,0,0,10.949,0,7.928,7.928,0,0,0-.025-11A7.327,7.327,0,0,0,247.608,431.878Zm2.661,10.664a3.73,3.73,0,0,1-5.354.019,3.877,3.877,0,0,1-1.084-2.8,3.984,3.984,0,0,1,1.135-2.858,3.471,3.471,0,0,1,2.631-1.178,3.513,3.513,0,0,1,2.645,1.179,3.962,3.962,0,0,1,1.144,2.845A3.828,3.828,0,0,1,250.268,442.542Z" transform="translate(-181.989 -398.905)"/><path d="M214.564,418.9a1.872,1.872,0,0,1,1.868-1.871h2.259v-3.852h-2.259a5.73,5.73,0,0,0-5.723,5.723v9.15h3.855Z" transform="translate(-196.051 -407.912)"/><path d="M251.967,438.1v9.15h3.853V438.1a1.872,1.872,0,0,1,1.87-1.87h2.259v-3.853H257.69A5.73,5.73,0,0,0,251.967,438.1Z" transform="translate(-176.184 -398.667)"/><path d="M266.373,440.137l-3.608-8.034h-4.141l5.694,12.829-.781,1.739a2.663,2.663,0,0,1-2.393,1.5h-1.889v3.779h1.889a6.1,6.1,0,0,0,5.8-3.615L273.19,434.1l.059-.222.775-1.775h-4.168Z" transform="translate(-172.978 -398.796)"/><path d="M270.69,425.9a1.871,1.871,0,0,1-1.87-1.87v-2.511l.021,0v-3.4h2.56v-3.631h-2.56v-4.861h-3.893v4.861h-2.23v3.631h2.23v3.91l.018,0v2a5.731,5.731,0,0,0,5.725,5.723h1.363V425.9Z" transform="translate(-171.007 -409.62)"/><path d="M239.008,443.18v-2.511h.021v-3.4h2.562v-3.633h-2.562v-4.71h-3.894v4.71h-2.23v3.633h2.23v3.908h.019v2a5.73,5.73,0,0,0,5.723,5.723h1.363v-3.852h-1.363A1.873,1.873,0,0,1,239.008,443.18Z" transform="translate(-185.363 -400.325)"/><path d="M259.242,428.284a8.632,8.632,0,0,0,3.849-.876,7.4,7.4,0,0,0,2.948-2.6l.523-.794-2.939-2.09-.541.689a4.5,4.5,0,0,1-3.68,1.92,3.841,3.841,0,0,1-2.935-1.206,4.02,4.02,0,0,1-1.153-2.9,3.713,3.713,0,0,1,1.151-2.794,4,4,0,0,1,2.936-1.147,4.292,4.292,0,0,1,3.64,1.876l.516.695,2.982-1.947-.473-.806a6.991,6.991,0,0,0-2.787-2.68,8,8,0,0,0-3.809-.939,7.59,7.59,0,0,0-5.7,2.311,7.756,7.756,0,0,0-2.221,5.55,7.583,7.583,0,0,0,2.215,5.5A7.415,7.415,0,0,0,259.242,428.284Z" transform="translate(-176.386 -408.15)"/><path d="M208.03,409.75h-7.2v19.912h3.911v-8.623h3.289a5.645,5.645,0,1,0,0-11.289Zm-.089,7.5h-3.2v-3.659h3.2a1.83,1.83,0,0,1,0,3.659Z" transform="translate(-200.809 -409.56)"/></g></g></g><rect class="e" width="20" height="27" transform="translate(109.682)"/></g><path class="f" d="M0,0,3.038.395A3.256,3.256,0,0,1,5.851,4.014L5.467,7.19a3.258,3.258,0,0,0,2.807,3.619l3,.4a3.256,3.256,0,0,1,2.8,3.663l-.412,3.058a3.257,3.257,0,0,0,2.809,3.664l3.063.4a3.258,3.258,0,0,1,2.821,3.561" transform="matrix(0.616, -0.788, 0.788, 0.616, 212.937, 56.899)"/><path class="f" d="M19.639,18.758l-3.062.084a3.256,3.256,0,0,1-3.343-3.136l-.117-3.2A3.256,3.256,0,0,0,9.78,9.372l-3.026.077A3.256,3.256,0,0,1,3.416,6.267L3.347,3.183A3.257,3.257,0,0,0,0,0" transform="translate(12.113 244.512) rotate(40)"/><ellipse class="f" cx="4.675" cy="4.675" rx="4.675" ry="4.675" transform="translate(83.639 73.037)"/><ellipse class="f" cx="4.675" cy="4.675" rx="4.675" ry="4.675" transform="translate(316.639 272.037)"/></g></svg>