<?xml version="1.0" encoding="utf-8"?>
<!-- Generator: Adobe Illustrator 25.2.1, SVG Export Plug-In . SVG Version: 6.00 Build 0)  -->
<svg version="1.1" id="Camada_1" xmlns="http://www.w3.org/2000/svg" xmlns:xlink="http://www.w3.org/1999/xlink" x="0px" y="0px"
	 viewBox="0 0 164.7 70" style="enable-background:new 0 0 164.7 70;" xml:space="preserve">
<path d="M164.7,35c0-2.6-1.1-5.1-3-6.9c-1.9-1.8-2.8-4.5-2.3-7.1c0.2-1.2,0.2-2.5-0.1-3.7c-0.3-1.3-0.8-2.5-1.6-3.6
	c-1.5-2.1-3.9-3.5-6.4-3.9c-2.6-0.4-4.9-2-6-4.4c-2.3-4.8-8-6.8-12.8-4.4c0,0,0,0,0,0c-0.1,0.1-0.2,0.1-0.4,0.2
	c-4.2,2.3-5.8,7.5-3.5,11.7c1.1,2,2.9,3.5,5.1,4.2c10,2.9,15.7,13.3,12.7,23.3c-1.8,6.1-6.6,10.9-12.7,12.7
	c-3.6,1.1-6.1,4.4-6.1,8.2l0,0c0,3.2,1.7,6.1,4.6,7.6c4.7,2.5,10.5,0.7,13-3.9c0.1-0.1,0.1-0.2,0.2-0.4c1.2-2.4,3.4-4,6.1-4.4
	c5.2-0.7,8.9-5.6,8.2-10.8c0,0,0,0,0,0c0-0.1,0-0.3-0.1-0.4c-0.5-2.6,0.4-5.3,2.3-7.1C163.7,40.1,164.7,37.6,164.7,35z M140.2,35
	c0-5.6-4.6-10.2-10.2-10.2s-10.2,4.6-10.2,10.2c0,5.6,4.6,10.2,10.2,10.2C135.6,45.2,140.2,40.7,140.2,35
	C140.2,35,140.2,35,140.2,35z"/>
<g transform="translate(0 8.69)">
	<path d="M34,21.8c2.2,0,4.4-0.9,5.9-2.5c3.2-3.3,3.2-8.6,0-11.9c-3.2-3.3-8.4-3.3-11.6-0.2c-0.1,0.1-0.1,0.1-0.2,0.2
		c-3.2,3.3-3.2,8.6,0,11.9C29.6,20.9,31.7,21.8,34,21.8z M31.1,10.3c0.7-0.8,1.8-1.3,2.8-1.3c1.1,0,2.1,0.5,2.9,1.3
		c0.8,0.8,1.3,1.9,1.2,3.1c0,1.1-0.4,2.2-1.2,3c-1.5,1.6-4.1,1.7-5.7,0.1c0,0-0.1-0.1-0.1-0.1c-0.8-0.8-1.2-1.9-1.2-3
		C29.9,12.3,30.3,11.2,31.1,10.3z"/>
	<path d="M52.6,21.8c1.5,0,3-0.5,4.2-1.4v1H61V0h-4.2v6.1c-1.2-0.8-2.6-1.2-4.1-1.2c-2.2,0-4.4,0.9-5.9,2.5c-1.6,1.6-2.5,3.7-2.4,6
		c0,2.2,0.8,4.4,2.4,6C48.2,20.9,50.4,21.8,52.6,21.8z M49.8,10.3c1.6-1.7,4.2-1.7,5.9-0.1c0,0,0,0,0.1,0.1c0.8,0.9,1.2,2,1.2,3.2
		c0,2.3-1.8,4.3-4.2,4.3c-1.1,0-2.2-0.5-2.9-1.3C48.2,14.7,48.1,12,49.8,10.3z"/>
	<path d="M67.1,20.9c2.2,1.4,5.1,1.2,7.2-0.4v1h4.2V5.4h-4.3v9.1c0,1.6-1.3,2.9-2.9,2.9c-1.6,0-2.9-1.3-2.9-2.9V5.4h-4.3v8.2
		c-0.1,1.6,0.2,3.2,0.7,4.6C65.3,19.3,66.1,20.2,67.1,20.9z"/>
	<path d="M0,52.6h4.3v-9.5h7.4v-4.3H4.3v-3.3h7.4v-4.3H0V52.6z"/>
	<path d="M26.3,36.9c-1.2-0.8-2.6-1.2-4.1-1.2c-2.2,0-4.4,0.9-5.9,2.5c-1.6,1.6-2.5,3.7-2.4,5.9c0,2.2,0.8,4.4,2.4,6
		c1.5,1.6,3.6,2.5,5.8,2.5c1.5,0,3-0.5,4.2-1.4v0.9h4.2V36.1h-4.2L26.3,36.9z M25.2,47.3c-0.8,0.8-1.8,1.3-2.9,1.2
		c-1.1,0-2.2-0.5-2.9-1.3c-1.7-1.7-1.7-4.4,0-6.1c0.8-0.8,1.8-1.3,2.9-1.3c1.1,0,2.2,0.4,3,1.2c0.8,0.8,1.3,2,1.2,3.1
		C26.5,45.4,26,46.5,25.2,47.3L25.2,47.3z"/>
	<path d="M45.6,46.5c-0.9,1.3-2.4,2.1-4,2.1c-1.2,0-2.4-0.4-3.2-1.3c-0.8-0.8-1.3-2-1.2-3.1c0-1.1,0.4-2.2,1.2-3
		c0.8-0.8,2-1.3,3.2-1.2c1.6,0,3.1,0.7,3.9,2l0.6,0.8l3.2-2.1l-0.5-0.9c-0.7-1.2-1.8-2.2-3-2.9c-1.3-0.7-2.7-1-4.1-1
		c-2.3-0.1-4.6,0.8-6.2,2.5c-1.6,1.6-2.4,3.8-2.4,6c0,2.2,0.8,4.4,2.4,6c1.6,1.6,3.7,2.5,5.9,2.4c1.4,0,2.9-0.3,4.2-0.9
		c1.3-0.6,2.4-1.6,3.2-2.8l0.6-0.9l-3.2-2.3L45.6,46.5z"/>
	<path d="M71.1,35.7c-2.2,0-4.4,0.9-5.9,2.5c-3.2,3.3-3.2,8.6,0,11.9c3.2,3.3,8.5,3.3,11.7,0.1c0,0,0.1-0.1,0.1-0.1
		c3.2-3.3,3.2-8.6,0-11.9C75.4,36.6,73.3,35.7,71.1,35.7z M74,47.3c-1.5,1.6-4.1,1.7-5.7,0.1c0,0-0.1-0.1-0.1-0.1
		c-0.8-0.8-1.2-1.9-1.2-3c0-1.2,0.4-2.3,1.2-3.1c0.7-0.8,1.8-1.3,2.9-1.3c1.1,0,2.1,0.5,2.9,1.3c0.8,0.8,1.3,1.9,1.2,3.1
		C75.2,45.4,74.7,46.5,74,47.3L74,47.3z"/>
	<path d="M20.1,11.9c0-1.1,0.9-2,2-2h2.4V5.7h-2.4c-3.4,0-6.2,2.8-6.2,6.2v9.9H20L20.1,11.9z"/>
	<path d="M82.1,42.7v9.9h4.2v-9.9c0-1.1,0.9-2,2-2h2.4v-4.2h-2.4C84.9,36.5,82.1,39.3,82.1,42.7z"/>
	<path d="M101.2,44.8l-3.9-8.7h-4.5L98.9,50l-0.8,1.9c-0.5,1-1.5,1.6-2.6,1.6h-2v4.1h2c2.7,0.1,5.2-1.4,6.3-3.9l6.8-15.4l0.1-0.2
		l0.8-1.9h-4.5L101.2,44.8z"/>
	<path d="M108,17.6c-1.1,0-2-0.9-2-2v-2.7h0V9.2h2.8V5.3H106V0h-4.2v5.3h-2.4v3.9h2.4v4.2h0v2.2c0,3.4,2.8,6.2,6.2,6.2h1.5v-4.2
		L108,17.6z"/>
	<path d="M58.1,46.4v-2.7h0V40h2.8v-3.9h-2.8V31h-4.2v5.1h-2.4V40h2.4v4.2h0v2.2c0,3.4,2.8,6.2,6.2,6.2h1.5v-4.2h-1.5
		C59,48.4,58.1,47.5,58.1,46.4z"/>
	<path d="M89.7,21.8c1.4,0,2.9-0.3,4.2-0.9c1.3-0.6,2.4-1.6,3.2-2.8l0.6-0.9l-3.2-2.3l-0.6,0.7c-0.9,1.3-2.4,2.1-4,2.1
		c-1.2,0-2.4-0.4-3.2-1.3c-0.8-0.8-1.3-2-1.2-3.1c0-1.1,0.4-2.2,1.2-3c0.8-0.8,2-1.3,3.2-1.2c1.6,0,3.1,0.7,3.9,2l0.6,0.8l3.2-2.1
		l-0.5-0.9c-0.7-1.2-1.8-2.2-3-2.9c-1.3-0.7-2.7-1-4.1-1c-2.3-0.1-4.6,0.8-6.2,2.5c-1.6,1.6-2.4,3.8-2.4,6c0,2.2,0.8,4.4,2.4,6
		C85.4,21,87.5,21.9,89.7,21.8z"/>
	<path d="M7.8,0.2H0v21.6h4.2v-9.3h3.6c3.4,0,6.1-2.7,6.2-6c0-3.4-2.7-6.1-6-6.2C7.9,0.2,7.9,0.2,7.8,0.2L7.8,0.2z M7.7,8.3H4.3v-4
		h3.5c1.1,0,2,0.9,1.9,2C9.6,7.4,8.8,8.3,7.7,8.3z"/>
</g>
</svg>
